<svg xmlns="http://www.w3.org/2000/svg" width="24" height="24" viewBox="0 0 24 24" fill="none">
  <path
    d="M20.927 18.875H3.071C2.48 18.875 2 19.35 2 19.938C2 20.524 2.48 21 3.071 21H20.927C21.519 21 21.998 20.524 21.998 19.938C21.998 19.35 21.519 18.875 20.928 18.875H20.927ZM5.988 9.037L2.302 12.234C2.2637 12.267 2.23298 12.308 2.21192 12.3539C2.19086 12.3999 2.17996 12.4499 2.17996 12.5005C2.17996 12.5511 2.19086 12.6011 2.21192 12.6471C2.23298 12.693 2.2637 12.734 2.302 12.767L5.989 15.953C6.01469 15.9753 6.04618 15.9898 6.07981 15.995C6.11343 16.0001 6.14783 15.9956 6.179 15.982C6.21026 15.9685 6.23691 15.9461 6.25573 15.9177C6.27454 15.8893 6.28471 15.8561 6.285 15.822V9.172C6.28577 9.13727 6.27631 9.10308 6.25778 9.07369C6.23926 9.04431 6.2125 9.02102 6.18084 9.00673C6.14917 8.99245 6.114 8.98779 6.07971 8.99335C6.04542 8.99891 6.01353 9.01444 5.988 9.038V9.037ZM20.928 11.439H10.214C9.622 11.439 9.142 11.914 9.142 12.501C9.142 13.088 9.622 13.564 10.214 13.564H20.928C21.312 13.564 21.665 13.361 21.856 13.032C21.9503 12.8707 22 12.6873 22 12.5005C22 12.3137 21.9503 12.1303 21.856 11.969C21.7614 11.8068 21.626 11.6723 21.4631 11.579C21.3002 11.4856 21.1157 11.4367 20.928 11.437V11.439ZM20.928 4H3.07C2.48 4 2 4.476 2 5.063C2 5.65 2.48 6.125 3.071 6.125H20.927C21.2039 6.11721 21.4669 6.00205 21.6604 5.80387C21.8539 5.60568 21.9628 5.34 21.964 5.063C21.964 4.489 21.505 4.019 20.927 4H20.928Z"
    fill="#353131" />
</svg>