<svg xmlns="http://www.w3.org/2000/svg" width="14" height="14" viewBox="0 0 14 14" fill="none">
<path d="M13.7516 6.14683C14.2172 5.6812 13.9641 4.87964 13.3172 4.77026L9.88599 4.19214C9.62193 4.14839 9.39693 3.97339 9.28599 3.72808L7.81724 0.473389C7.53599 -0.151611 6.66099 -0.162548 6.36255 0.453077L4.80943 3.66089C4.69224 3.90308 4.46099 4.07183 4.19537 4.10933L0.753179 4.58589C0.104742 4.67651 -0.171821 5.47183 0.281304 5.94995L2.77974 8.5937C2.9563 8.7812 3.03443 9.04058 2.98912 9.29526L2.35005 12.9281C2.23287 13.5937 2.92818 14.1031 3.52037 13.7859L6.54849 12.1609C6.79224 12.0296 7.08443 12.0343 7.32349 12.1718L10.3063 13.8828C10.8907 14.2171 11.5985 13.7265 11.5001 13.0578L10.9563 9.41089C10.9188 9.15464 11.0032 8.89683 11.1844 8.71401L13.7516 6.14683Z" fill="#FFAA00"/>
</svg>