<svg xmlns="http://www.w3.org/2000/svg" width="36" height="36" viewBox="0 0 36 36" fill="none">
  <path d="M1.61787e-07 18.0054L4.20859e-07 18.0062C0.00343321 27.9473 8.06349 36.0034 18.0026 36C27.9417 35.9966 35.9962 27.9349 35.9928 17.9938C35.9894 8.05477 27.9326 -0.0004571 17.9956 0L17.9956 0C8.05548 0.00143333 -0.00144133 8.06226 0 18.0044C4.93411e-08 18.0047 1.08445e-07 18.0051 1.7731e-07 18.0054L1.61787e-07 18.0054Z" fill="white"/>
  <path d="M31.1994 30.1645C30.7179 27.6392 26.2814 25.2257 22.2995 23.9072C22.1047 23.8422 20.8928 23.2975 21.652 20.9958C23.6358 18.963 25.1399 15.6891 25.1399 12.4658C25.1399 7.51432 21.8414 4.9151 18.0073 4.9151C14.1732 4.9151 10.8838 7.51073 10.8838 12.4658C10.8838 15.6999 12.3878 18.9865 14.3752 21.0157C15.1507 23.045 13.7657 23.8008 13.4735 23.9018C9.68633 25.2672 5.28594 27.6897 4.80084 30.1591C-1.9226 22.854 -1.4522 11.4804 5.8515 4.75565C13.1552 -1.96914 24.5264 -1.49864 31.2499 5.80651C34.3018 9.12244 35.9971 13.4639 36.0001 17.9709V17.9724C36.0023 22.4986 34.2861 26.8567 31.1984 30.1656" fill="#95CB9C"/>
</svg>