<svg width="137.000000" height="112.000000" viewBox="0 0 137 112" fill="none" xmlns="http://www.w3.org/2000/svg" xmlns:xlink="http://www.w3.org/1999/xlink">
	<desc>
			Created with Pixso.
	</desc>
	<defs/>
	<path id="Vector 1" d="M57.0183 2.19968C1.87061 4.32913 5.31738 76.2872 13.9341 112L29.1792 112C29.1792 62.0908 82.8687 63.4217 82.8687 112L95.4624 112C99.7046 41.1954 125.29 66.749 130.593 96.029L135.232 96.029C135.232 96.029 139.209 48.1162 135.232 36.138C131.255 24.1597 125.953 -0.462158 57.0183 2.19968Z" fill-rule="evenodd" fill="#AEB7E9"/>
	<path id="Vector 3 (Stroke)" d="M111.97 13.4339C101.773 6.28406 83.4509 0.789886 49.0439 2.11853C35.4756 2.64247 25.5835 7.45001 18.4651 14.8675C11.3257 22.3067 6.91187 32.4397 4.45605 43.7022C-0.392334 65.9354 2.44946 92.2912 6.64746 110.081L20.1997 110.081C20.5415 85.4055 34.0637 72.9477 48.0242 73.1208C61.9541 73.2934 75.4739 86.0443 75.8245 110.081L86.5793 110.081C87.6694 92.8309 90.0452 81.2874 93.1389 74.1471C94.7134 70.5134 96.5034 67.9496 98.4702 66.3698C100.464 64.7681 102.622 64.197 104.806 64.5417C106.953 64.8805 109.025 66.0876 110.942 67.8469C112.863 69.611 114.68 71.9772 116.319 74.7377C119.481 80.063 122.041 86.9535 123.425 94.0979L126.393 94.0979C126.418 93.7788 126.449 93.3774 126.485 92.9012C126.586 91.5693 126.726 89.6525 126.881 87.3146C127.192 82.6383 127.564 76.2802 127.812 69.5498C128.061 62.8169 128.185 55.7237 127.999 49.5736C127.812 43.3829 127.313 38.272 126.368 35.4262C126.222 34.9845 126.074 34.5277 125.922 34.0575C123.997 28.1151 121.38 20.0321 111.97 13.4339ZM127.275 95.0576C128.228 95.1373 128.228 95.1371 128.228 95.1367L128.231 95.1017L128.239 94.9978L128.272 94.5927C128.3 94.2374 128.341 93.7152 128.392 93.0467C128.493 91.7097 128.633 89.7869 128.789 87.4423C129.1 82.7538 129.474 76.3758 129.723 69.6208C129.972 62.8683 130.097 55.7269 129.91 49.5155C129.723 43.3446 129.227 37.9668 128.182 34.8192C128.036 34.3798 127.888 33.9214 127.735 33.4462C125.803 27.4707 123.012 18.8359 113.064 11.8602C102.367 4.3593 83.5457 -1.13461 48.9705 0.200531C34.946 0.742096 24.5747 5.73502 17.0884 13.5357C9.6228 21.3147 5.09058 31.8177 2.58838 43.2917C-2.41235 66.2236 0.634521 93.32 4.96436 111.266C5.06836 111.697 5.45215 112 5.89355 112L21.1492 112C21.677 112 22.105 111.57 22.105 111.04C22.105 86.4062 35.2776 74.8823 48.0005 75.04C60.7495 75.1981 73.9197 87.0829 73.9197 111.04C73.9197 111.57 74.3477 112 74.8755 112L87.478 112C87.9836 112 88.4019 111.605 88.4321 111.098C89.4912 93.4199 91.8792 81.8665 94.8921 74.9127C96.3979 71.4375 98.03 69.1815 99.6646 67.8686C101.272 66.5776 102.895 66.1831 104.509 66.4378C106.159 66.6982 107.9 67.6555 109.652 69.2634C111.398 70.8665 113.103 73.0703 114.677 75.7206C117.824 81.0213 120.383 88.0028 121.692 95.2293C121.774 95.6856 122.17 96.0173 122.632 96.0173L127.275 96.0173C127.772 96.0173 128.187 95.6341 128.228 95.1367L127.275 95.0576Z" fill-rule="evenodd" fill="#585656"/>
	<path id="Ellipse 10" d="M104 45C104 46.6569 102.657 48 101 48C99.3433 48 98 46.6569 98 45C98 43.3431 99.3433 42 101 42C102.657 42 104 43.3431 104 45Z" fill-rule="evenodd" fill="#585656"/>
	<path id="Vector 2 (Stroke)" d="M72.9673 27.2212C73.3784 27.5605 73.4358 28.1678 73.0957 28.5777C70.4707 31.7398 67.5168 36.7452 67.0088 41.5193C66.7573 43.8818 67.1089 46.1389 68.3423 48.1038C69.575 50.0677 71.7549 51.8459 75.3584 53.129C75.8611 53.308 76.123 53.8592 75.9434 54.3603C75.7639 54.8614 75.2109 55.1226 74.7083 54.9436C70.8015 53.5525 68.2205 51.5423 66.7039 49.126C65.188 46.7107 64.8018 43.9955 65.0869 41.3161C65.6519 36.0065 68.8669 30.6496 71.6067 27.3492C71.947 26.9393 72.5562 26.882 72.9673 27.2212Z" fill-rule="evenodd" fill="#585656"/>
</svg>
